<svg width="20" height="19" viewBox="0 0 20 19" fill="none" xmlns="http://www.w3.org/2000/svg">
<path opacity="0.24" d="M9.35757 0.26464C9.71252 -0.0882948 10.2878 -0.0882948 10.6427 0.26464L19.7335 9.31249C20.0886 9.66582 20.0886 10.2385 19.7335 10.5918C19.3785 10.9451 18.8034 10.9451 18.4484 10.5918L18.1818 10.3271V17.1943C18.1818 18.193 17.3693 18.9998 16.3634 19H3.63687C2.6334 18.9998 1.81851 18.1931 1.81851 17.1943V10.3271L1.55191 10.5918C1.19689 10.9451 0.621774 10.9451 0.266752 10.5918C-0.0882646 10.2385 -0.0882681 9.66582 0.266752 9.31249L9.35757 0.26464ZM3.63687 8.51952C3.63668 10.2283 3.63687 17.1697 3.63687 17.1904L6.36343 17.1914V11.7598C6.36343 11.2613 6.77086 10.8574 7.27066 10.8574H12.7296C13.2302 10.8574 13.6369 11.261 13.6369 11.7598V17.1924L16.3634 17.1943V8.51952L10.0002 2.1914L3.63687 8.51952ZM8.18179 12.667V17.1914L11.8185 17.1924V12.665L8.18179 12.667Z" fill="black"/>
</svg>
