<svg width="14" height="13" viewBox="0 0 14 13" fill="none" xmlns="http://www.w3.org/2000/svg">
<path opacity="0.24" d="M6.90137 12.4494C7.13599 12.9318 7.74161 13.1411 8.24707 12.8986C8.25775 12.8938 8.73596 12.6772 9.0498 12.4445C9.63913 12.0076 10.0125 11.4533 10 10.7931C10.0073 10.3754 9.92746 9.76016 9.78223 8.97772C9.74339 8.7685 9.56445 7.92401 9.56445 7.92401C9.52825 7.75177 9.64947 7.61265 9.83496 7.61248H12.2412C13.4012 7.61245 14.1962 6.68319 13.957 5.61932C13.9498 5.58343 13.1099 2.37491 12.958 2.00213C12.3924 0.545625 11.0812 -0.0192156 9.00293 0.00213051C8.04914 -0.00231075 1.33301 0.00213051 1.33301 0.00213051C0.596806 0.00214005 0 0.568352 0 1.26776V6.34686C0 7.04559 0.597457 7.61247 1.33301 7.61248H3.88281C4.25221 7.61264 4.66896 7.88343 4.82812 8.18572C4.98692 8.48752 6.89303 12.4322 6.90137 12.4494ZM1.33301 6.34393V1.26776C1.33301 1.26776 1.87335 1.26759 2.66699 1.26776V6.34393H1.33301ZM6.03809 7.6535C5.68191 6.92114 4.84883 6.39208 4 6.34686V1.26776C6.1151 1.26829 8.75878 1.26957 9.01758 1.27069C10.4977 1.25552 11.2309 1.53978 11.6045 2.22186H11.335C10.9658 2.22186 10.6662 2.50308 10.666 2.85565C10.666 3.20589 10.9619 3.49041 11.335 3.49041H12.0029C12.058 3.69139 12.1167 3.90734 12.1758 4.1242H11.668C11.299 4.12432 11.0002 4.40557 11 4.75799C11 5.10816 11.295 5.39264 11.668 5.39276H12.5205C12.598 5.67882 12.6488 5.86927 12.6514 5.87908C12.7144 6.15734 12.5544 6.34387 12.2412 6.34393H9.83496C8.81068 6.34412 8.05575 7.21318 8.25781 8.17401C8.26471 8.2066 8.45652 9.12669 8.46973 9.19744C8.60752 9.93974 8.67132 10.4708 8.66602 10.7726V10.8166C8.66955 11.0058 8.54891 11.2074 8.23047 11.4435C8.19464 11.4701 7.95996 11.6056 7.95996 11.6056L6.03809 7.6535Z" fill="black"/>
</svg>
