<svg width="22" height="16" viewBox="0 0 22 16" fill="none" xmlns="http://www.w3.org/2000/svg">
<path opacity="0.24" d="M15.5547 0C17.9492 0.00017876 20.1473 2.28252 21.0566 5.06445C21.7543 7.19916 21.941 8.56686 22 11.5723C21.9418 14.4918 20.6589 15.9854 18.3281 16C16.8854 15.9918 15.8878 15.3628 14.9658 14.2207C14.8176 14.0371 14.3986 13.4788 14.3867 13.4629C13.4378 12.2355 12.4565 11.5654 11.0029 11.5557C9.5435 11.5653 8.56229 12.2354 7.61328 13.4629C7.60456 13.4745 7.18304 14.0363 7.03418 14.2207C6.1122 15.3629 5.1142 15.9918 3.66016 16C1.34074 15.9854 0.0582467 14.4919 0 11.5381C0.0589848 8.5669 0.245654 7.19918 0.943359 5.06445C1.85275 2.28246 4.05072 0 6.44531 0C7.43231 5.36002e-06 8.02954 0.137712 9.03418 0.500977C9.06532 0.512239 9.06581 0.512277 9.09668 0.523438C9.89228 0.810975 10.2323 0.888672 11 0.888672C11.7676 0.88866 12.1076 0.811043 12.9033 0.523438C12.9342 0.512262 12.9345 0.512287 12.9658 0.500977C13.9704 0.137751 14.5677 0 15.5547 0ZM15.5547 1.77734C14.8283 1.77734 14.4241 1.87136 13.6064 2.16699C13.5754 2.17821 13.5752 2.17815 13.5439 2.18945C12.5581 2.54577 11.9184 2.66697 11 2.66699C10.0816 2.66699 9.44188 2.54575 8.45605 2.18945C8.42473 2.17813 8.42445 2.17817 8.39355 2.16699C7.57584 1.87132 7.17166 1.77735 6.44531 1.77734C5.02035 1.77734 3.38564 3.4747 2.69043 5.60156C2.05291 7.55215 1.88887 8.7582 1.83301 11.5381C1.87338 13.5616 2.4341 14.215 3.66113 14.2227C4.4461 14.2182 4.98053 13.881 5.59082 13.125C5.71659 12.9692 6.12644 12.4225 6.14648 12.3965C7.40463 10.7692 8.83564 9.79137 10.9941 9.77734C13.164 9.79136 14.5954 10.7692 15.8535 12.3965C15.8751 12.4245 16.2838 12.9697 16.4092 13.125C17.0194 13.881 17.5535 14.2181 18.3271 14.2227C19.5654 14.215 20.1266 13.5615 20.167 11.5723C20.1111 8.75817 19.9461 7.55213 19.3086 5.60156C18.6134 3.47493 16.9795 1.77757 15.5547 1.77734ZM6.41602 4C7.9348 4 9.16602 5.19423 9.16602 6.66699C9.16583 8.1396 7.93469 9.33301 6.41602 9.33301C4.89757 9.33276 3.6662 8.13945 3.66602 6.66699C3.66602 5.19439 4.89745 4.00025 6.41602 4ZM15.583 7.55566C16.0892 7.55566 16.4999 7.95347 16.5 8.44434C16.5 8.93526 16.0893 9.33301 15.583 9.33301C15.0768 9.33293 14.666 8.93521 14.666 8.44434C14.6661 7.95352 15.0769 7.55575 15.583 7.55566ZM6.41602 5.77734C5.90998 5.7776 5.5 6.17623 5.5 6.66699C5.50018 7.15761 5.91009 7.55541 6.41602 7.55566C6.92216 7.55566 7.33283 7.15776 7.33301 6.66699C7.33301 6.17607 6.92228 5.77734 6.41602 5.77734ZM13.75 5.77734C14.2562 5.77743 14.666 6.17613 14.666 6.66699C14.6658 7.15771 14.2561 7.55557 13.75 7.55566C13.2439 7.55566 12.8332 7.15776 12.833 6.66699C12.833 6.17607 13.2437 5.77734 13.75 5.77734ZM17.416 5.77734C17.9223 5.77734 18.333 6.17607 18.333 6.66699C18.3328 7.15776 17.9222 7.55566 17.416 7.55566C16.9101 7.55541 16.5002 7.15761 16.5 6.66699C16.5 6.17623 16.91 5.7776 17.416 5.77734ZM15.583 4C16.0892 4 16.4999 4.39785 16.5 4.88867C16.5 5.37959 16.0893 5.77734 15.583 5.77734C15.0768 5.77726 14.666 5.37954 14.666 4.88867C14.6661 4.3979 15.0769 4.00008 15.583 4Z" fill="black"/>
</svg>
