<svg width="20" height="19" viewBox="0 0 20 19" fill="none" xmlns="http://www.w3.org/2000/svg">
<path d="M9.35742 0.264648C9.71237 -0.0882872 10.2876 -0.0882872 10.6426 0.264648L19.7334 9.3125C20.0884 9.66583 20.0884 10.2385 19.7334 10.5918C19.3784 10.9451 18.8033 10.9451 18.4482 10.5918L18.1816 10.3271V17.1943C18.1816 18.193 17.3691 18.9998 16.3633 19H3.63672C2.63324 18.9998 1.81836 18.1931 1.81836 17.1943V10.3271L1.55176 10.5918C1.19673 10.9451 0.621622 10.9451 0.2666 10.5918C-0.0884172 10.2385 -0.0884207 9.66583 0.2666 9.3125L9.35742 0.264648ZM3.63672 8.51953C3.63653 10.2283 3.63671 17.1697 3.63672 17.1904L6.36328 17.1914V11.7598C6.36328 11.2613 6.77071 10.8574 7.27051 10.8574H12.7295C13.2301 10.8574 13.6367 11.261 13.6367 11.7598V17.1924L16.3633 17.1943V8.51953L10 2.19141L3.63672 8.51953ZM8.18164 12.667V17.1914L11.8184 17.1924V12.665L8.18164 12.667Z" fill="#FF0000"/>
</svg>
