<svg width="14" height="13" viewBox="0 0 14 13" fill="none" xmlns="http://www.w3.org/2000/svg">
<path opacity="0.24" d="M6.90137 0.550603C7.13599 0.0681843 7.74161 -0.141121 8.24707 0.101385C8.25775 0.106219 8.73596 0.322837 9.0498 0.555486C9.63913 0.99237 10.0125 1.54672 10 2.20685C10.0073 2.62458 9.92746 3.23984 9.78223 4.02228C9.74339 4.2315 9.56445 5.07599 9.56445 5.07599C9.52825 5.24823 9.64947 5.38735 9.83496 5.38752H12.2412C13.4012 5.38755 14.1962 6.31681 13.957 7.38068C13.9498 7.41657 13.1099 10.6251 12.958 10.9979C12.3924 12.4544 11.0812 13.0192 9.00293 12.9979C8.04914 13.0023 1.33301 12.9979 1.33301 12.9979C0.596806 12.9979 0 12.4316 0 11.7322V6.65314C0 5.95441 0.597457 5.38753 1.33301 5.38752H3.88281C4.25221 5.38736 4.66896 5.11657 4.82812 4.81428C4.98692 4.51248 6.89303 0.567845 6.90137 0.550603ZM1.33301 6.65607V11.7322C1.33301 11.7322 1.87335 11.7324 2.66699 11.7322V6.65607H1.33301ZM6.03809 5.3465C5.68191 6.07886 4.84883 6.60792 4 6.65314V11.7322C6.1151 11.7317 8.75878 11.7304 9.01758 11.7293C10.4977 11.7445 11.2309 11.4602 11.6045 10.7781H11.335C10.9658 10.7781 10.6662 10.4969 10.666 10.1444C10.666 9.79411 10.9619 9.50959 11.335 9.50959H12.0029C12.058 9.30861 12.1167 9.09266 12.1758 8.8758H11.668C11.299 8.87568 11.0002 8.59443 11 8.24201C11 7.89184 11.295 7.60736 11.668 7.60724H12.5205C12.598 7.32118 12.6488 7.13073 12.6514 7.12092C12.7144 6.84266 12.5544 6.65613 12.2412 6.65607H9.83496C8.81068 6.65588 8.05575 5.78682 8.25781 4.82599C8.26471 4.7934 8.45652 3.87331 8.46973 3.80256C8.60752 3.06026 8.67132 2.5292 8.66602 2.22736V2.18342C8.66955 1.99419 8.54891 1.79262 8.23047 1.55646C8.19464 1.5299 7.95996 1.39435 7.95996 1.39435L6.03809 5.3465Z" fill="black"/>
</svg>
