<svg width="19" height="20" viewBox="0 0 19 20" fill="none" xmlns="http://www.w3.org/2000/svg">
<path opacity="0.24" d="M10.2832 0C10.961 0.000195943 11.6375 0.446547 11.8848 1.04199C11.9497 1.18383 12.7144 3.26545 12.7256 3.2959L13.4687 3.72949C13.5019 3.72371 15.6875 3.34275 15.8154 3.33105C16.4864 3.24887 17.2093 3.60885 17.5469 4.19336L18.4775 5.80664C18.8163 6.39382 18.7682 7.20297 18.376 7.71484C18.2847 7.84314 16.8531 9.55698 16.8428 9.56934C16.8428 9.56934 16.8516 9.69704 16.8516 10C16.8516 10.146 16.8389 10.4365 16.8389 10.4365C16.8389 10.4365 18.2837 12.1558 18.3594 12.2627C18.7661 12.8026 18.8149 13.6087 18.4775 14.1934L17.5469 15.8066C17.2079 16.3936 16.4827 16.756 15.8369 16.6719C15.8316 16.6714 13.4561 16.2686 13.4561 16.2686L12.7256 16.7002C12.7169 16.7239 11.9505 18.8118 11.8955 18.9316C11.6313 19.5538 10.9582 19.9998 10.2832 20H8.4209C7.74281 20 7.06655 19.5528 6.81933 18.957C6.7535 18.8128 5.98164 16.7089 5.97558 16.6924L5.23047 16.2676C5.19618 16.2736 3.01966 16.6567 2.88867 16.6689C2.21777 16.7512 1.4949 16.3911 1.15723 15.8066L0.226562 14.1934C-0.112383 13.6061 -0.0642118 12.7971 0.328124 12.2852C0.419605 12.1565 1.8623 10.4287 1.8623 10.4287C1.86176 10.4221 1.85156 10.2949 1.85156 10C1.85156 9.85918 1.86388 9.58124 1.86426 9.57227C1.86426 9.57227 0.420427 7.84426 0.344726 7.7373C-0.0620924 7.19731 -0.11093 6.39137 0.226562 5.80664L1.15723 4.19336C1.4963 3.60649 2.22106 3.24456 2.86035 3.32812C3.01691 3.3429 5.25293 3.73242 5.25293 3.73242L5.98633 3.2959C5.98633 3.2959 6.75219 1.18926 6.80762 1.06836C7.07187 0.446009 7.74572 3.0219e-05 8.4209 0H10.2832ZM10.1348 2.03125C10.0987 1.95113 8.60712 1.95122 8.56933 2.03125C8.51037 2.16989 7.95707 3.65124 7.76172 4.30469L7.62695 4.75391L7.19629 4.93848C6.78863 5.11238 6.40308 5.33504 6.04883 5.60156L5.67383 5.88379L5.2168 5.77539C4.55338 5.61781 2.99434 5.35648 2.84277 5.33789C2.75612 5.32732 2.00907 6.62058 2.05957 6.69336C2.15022 6.81383 3.15759 8.03429 3.62598 8.53027L3.94726 8.87109L3.8916 9.33594C3.86533 9.55481 3.85156 9.77667 3.85156 10C3.85156 10.2233 3.86533 10.4452 3.8916 10.6641L3.94726 11.1289L3.62598 11.4697C3.15759 11.9657 2.15022 13.1862 2.05957 13.3066C2.00906 13.3794 2.75612 14.6727 2.84277 14.6621C2.99434 14.6435 4.55338 14.3822 5.2168 14.2246L5.67383 14.1162L6.04883 14.3984C6.40308 14.665 6.78863 14.8876 7.19629 15.0615L7.62695 15.2461L7.76172 15.6953C7.95707 16.3488 8.51037 17.8301 8.56933 17.9688C8.60711 18.0488 10.0987 18.0489 10.1348 17.9688C10.1937 17.8301 10.747 16.3489 10.9424 15.6953L11.0762 15.2461L11.5078 15.0615C11.9155 14.8876 12.301 14.665 12.6553 14.3984L13.0303 14.1162L13.4873 14.2246C14.1512 14.3823 15.7117 14.6438 15.8613 14.6621C15.9131 14.6674 16.6961 13.3765 16.6436 13.3066C16.5528 13.186 15.5465 11.9648 15.0781 11.4688L14.7568 11.1289L14.8125 10.6631C14.8387 10.4444 14.8516 10.2231 14.8516 10C14.8516 9.77687 14.8387 9.55559 14.8125 9.33691L14.7568 8.87109L15.0781 8.53125C15.5465 8.03524 16.5528 6.814 16.6436 6.69336C16.6961 6.62354 15.9484 5.32792 15.8613 5.33789C15.7117 5.35616 14.1512 5.61772 13.4873 5.77539L13.0303 5.88379L12.6553 5.60156C12.301 5.33502 11.9155 5.11239 11.5078 4.93848L11.0762 4.75391L10.9424 4.30469C10.747 3.65114 10.1937 2.16988 10.1348 2.03125ZM9.35156 7C11.0084 7 12.3516 8.34315 12.3516 10C12.3516 11.6569 11.0084 13 9.35156 13C7.69484 12.9998 6.35156 11.6568 6.35156 10C6.35156 8.34325 7.69484 7.00016 9.35156 7ZM9.35156 9C8.79941 9.00016 8.35156 9.44781 8.35156 10C8.35156 10.5522 8.79941 10.9998 9.35156 11C9.90385 11 10.3516 10.5523 10.3516 10C10.3516 9.44771 9.90385 9 9.35156 9Z" fill="black"/>
</svg>
