<svg width="16" height="21" viewBox="0 0 16 21" fill="none" xmlns="http://www.w3.org/2000/svg">
<path opacity="0.24" d="M9.08594 0.106438C9.84591 -0.272872 10.6938 0.424622 10.4961 1.26659C9.98371 3.44844 10.5124 4.62213 11.8926 5.88671C11.9872 5.97343 13.1746 6.81963 13.6152 7.20019C15.1325 8.51058 16 10.1178 16 12.3213C15.9999 16.9118 12.4133 20.5262 8.01172 20.5264C3.60603 20.5264 0.000131901 16.9094 0 12.3213C0 9.79437 0.547839 8.23253 2.15527 5.63671C2.6639 4.81539 3.89839 5.11435 3.99414 6.08202C4.08012 6.9516 4.34386 7.69228 4.72852 8.25976C4.47197 5.19351 5.8037 1.74491 9.08594 0.106438ZM8.31348 3.18261C7.64348 3.85166 6.10394 5.9325 6.97168 10.0488C7.10595 10.6868 6.63132 11.2891 5.99414 11.2891C4.72982 11.2889 3.47964 10.2985 2.71582 8.78222C2.4221 9.49423 2 10.2354 2 12.3213C2.00013 15.7683 4.70138 18.4775 8.01172 18.4775C11.316 18.4774 13.9999 15.7728 14 12.3213C14 10.7814 13.4249 9.71556 12.3262 8.76659C11.9887 8.47516 10.7682 7.60611 10.5586 7.41405C9.23364 6.19999 8.42351 4.90651 8.31348 3.18261Z" fill="black"/>
</svg>
