<svg width="27" height="20" viewBox="0 0 27 20" fill="none" xmlns="http://www.w3.org/2000/svg">
<path opacity="0.24" d="M15.9551 0C17.3104 4.82533e-05 18.4092 1.11844 18.4092 2.50293V5.68164L22.208 2.86719C22.4822 2.66417 22.9736 2.5 23.3203 2.5H25.7695C26.4491 2.50024 26.9999 3.0607 27 3.75293V16.2471C26.9999 16.9389 26.4562 17.4998 25.7695 17.5H23.3203C22.9805 17.5 22.4798 17.3341 22.208 17.1328L18.4092 14.3184V17.4971C18.4092 18.8792 17.3127 20 15.9551 20H2.4541C1.09874 20 0 18.8816 0 17.4971V2.50293C0 1.12075 1.09644 0 2.4541 0H15.9551ZM2.4541 17.5H15.9541V2.5H2.4541V17.5ZM12.2695 12.5C12.9491 12.5002 13.5 13.055 13.5 13.75C13.5 14.4402 12.9497 14.9998 12.2695 15H6.13965C5.46 14.9998 4.90918 14.4451 4.90918 13.75C4.90918 13.0597 5.45939 12.5002 6.13965 12.5H12.2695ZM18.4238 8.76172V11.2383L23.5107 15L24.5459 14.999V4.99805L23.5068 4.99707L18.4238 8.76172Z" fill="black"/>
</svg>
