<svg width="19" height="18" viewBox="0 0 19 18" fill="none" xmlns="http://www.w3.org/2000/svg">
<path opacity="0.24" d="M8.10736 0.857272C8.67405 -0.286169 10.0235 -0.285346 10.5898 0.857272C10.5898 0.857272 12.7297 5.12958 12.6835 5.1229L17.4355 5.8104C18.7026 5.99377 19.1193 7.27348 18.2031 8.16294C18.1859 8.17971 14.8005 11.494 14.7763 11.4647L15.5878 16.1776C15.8042 17.4344 14.7115 18.2237 13.579 17.6307C13.5373 17.6091 9.32698 15.4276 9.3681 15.4061L5.1181 17.6307C3.98478 18.2241 2.89308 17.4335 3.10931 16.1776C3.10931 16.1776 3.89912 11.4684 3.93256 11.5008L0.494079 8.16294C-0.422813 7.27281 -0.00449434 5.99364 1.26166 5.8104C1.30264 5.80429 5.99149 5.10569 5.98236 5.14536L8.10736 0.857272ZM7.64447 5.96274C7.39481 6.46644 6.83603 6.86947 6.27923 6.95005L2.46869 7.5018L5.2265 10.1786C5.63028 10.5707 5.84303 11.224 5.74798 11.7762L5.09662 15.5575L8.50482 13.7713C9.00408 13.5099 9.69427 13.5106 10.1923 13.7713L13.6093 15.5604L12.9492 11.7762C12.8539 11.2226 13.0678 10.5697 13.4706 10.1786L16.2245 7.50571L12.4169 6.95005C11.859 6.86912 11.3017 6.46506 11.0527 5.96274L9.34955 2.52524L7.64447 5.96274Z" fill="black"/>
</svg>
