<svg width="20" height="16" viewBox="0 0 20 16" fill="none" xmlns="http://www.w3.org/2000/svg">
<path opacity="0.24" d="M7.30762 0C7.81071 0 8.44108 0.332692 8.71582 0.743164L10.0039 2.66699H18.1777C19.1839 2.66699 20 3.46101 20 4.44434V14.2227C19.9999 15.2043 19.1846 16 18.1807 16H1.81934C0.814727 16 0 15.2065 0 14.2266V1.77344C0 0.794105 0.817912 0.000155942 1.81348 0H7.30762ZM1.81836 14.2266L18.1807 14.2227L18.1816 4.44434H10.0039C9.39069 4.44434 8.81836 4.1422 8.48242 3.64062L7.27246 1.78223L1.81348 1.77734L1.81836 14.2266Z" fill="black"/>
</svg>
