<svg width="22" height="26" viewBox="0 0 22 26" fill="none" xmlns="http://www.w3.org/2000/svg">
<path opacity="0.24" d="M11 0C12.3499 0 13.4441 1.05804 13.4443 2.36328V2.67676C17.3321 3.70367 20.1668 7.14176 20.167 11.2314V15.8457C21.2794 16.4668 22 17.6192 22 18.9092C22 20.868 20.3587 22.4539 18.3311 22.4541H14.667C14.6649 24.4125 13.0197 26 11 26C8.97496 26 7.33301 24.4142 7.33301 22.457L3.66895 22.4541C1.64367 22.4539 5.02107e-05 20.8655 0 18.9092C0 17.6106 0.727496 16.4531 1.83887 15.835C1.83887 15.4758 1.83301 11.2256 1.83301 11.2256C1.83302 7.14184 4.66863 3.70391 8.55566 2.67676V2.36328C8.55586 1.05804 9.65009 0 11 0ZM9.77734 22.4541C9.77734 23.1078 10.3244 23.6367 11 23.6367C11.6709 23.6367 12.2206 23.1059 12.2227 22.4541H9.77734ZM11 4.72754C7.28676 4.72754 4.27735 7.63638 4.27734 11.2256V16.9424C4.27734 17.273 4.01519 17.602 3.69141 17.6826L3.36035 17.7646C2.82526 17.8978 2.44434 18.3667 2.44434 18.9092C2.44439 19.5599 2.99354 20.0907 3.66895 20.0908H18.3311C19.0089 20.0907 19.5556 19.5624 19.5557 18.9092C19.5557 18.3691 19.1734 17.8984 18.6387 17.7646L18.3184 17.6846C17.9925 17.6031 17.7227 17.2699 17.7227 16.9424V11.2314C17.7225 7.63524 14.7147 4.72754 11 4.72754Z" fill="black"/>
</svg>
