<svg width="20" height="18" viewBox="0 0 20 18" fill="none" xmlns="http://www.w3.org/2000/svg">
<path opacity="0.24" d="M17.2725 0C18.7796 0 19.9998 1.21096 20 2.7041V4.50195C20 4.99768 19.5964 5.40039 19.0908 5.40039H16.3633V15.3047C16.3632 16.7944 15.1425 17.9998 13.6367 18H2.72754C1.22437 18 0 16.791 0 15.2998V13.499C2.0394e-05 13.0042 0.407115 12.5996 0.90918 12.5996H3.63672V2.69727C3.63681 1.20749 4.85727 0.000189828 6.36328 0H17.2725ZM1.81836 15.2998C1.81836 15.7955 2.22715 16.2002 2.72754 16.2002C3.22992 16.2001 3.63663 15.7979 3.63672 15.3027V14.4004H1.81836V15.2998ZM6.36328 1.7998C5.86094 1.79999 5.4542 2.20208 5.4541 2.69727V15.3027C5.45408 15.6173 5.39988 15.9195 5.2998 16.2002H13.6367C14.1395 16.2 14.5458 15.7991 14.5459 15.3047V5.40039H8.18164C7.67616 5.4003 7.27248 4.99744 7.27246 4.50098V2.7002C7.27246 2.2045 6.86367 1.7998 6.36328 1.7998ZM8.93555 1.7998C9.03624 2.08131 9.09082 2.38462 9.09082 2.7002V3.59961H18.1816V2.7041C18.1815 2.20399 17.7743 1.7998 17.2725 1.7998H8.93555Z" fill="black"/>
</svg>
