<svg width="18" height="17" viewBox="0 0 18 17" fill="none" xmlns="http://www.w3.org/2000/svg">
<path opacity="0.24" d="M12.5996 0C15.5819 0 18 2.46864 18 5.51367C17.9999 9.95773 13.4942 14.2434 9.38184 16.7578C9.17281 16.8905 8.82963 16.8925 8.62012 16.7598C4.48044 14.2536 0.000106403 9.95789 0 5.51367C0 2.46864 2.41805 0 5.40039 0C6.78328 9.99238e-05 8.04473 0.531333 9 1.4043C9.95527 0.531333 11.2167 0.000100046 12.5996 0ZM12.5996 1.83789C11.7002 1.83799 10.8564 2.17377 10.2002 2.77344L9.33398 3.56445C9.14932 3.73315 8.85319 3.73545 8.66602 3.56445L7.7998 2.77344C7.1436 2.17377 6.29983 1.83799 5.40039 1.83789C3.41217 1.83789 1.7998 3.48365 1.7998 5.51367C1.79991 8.3845 4.55456 11.8546 9.00488 14.8252C13.4554 11.8546 16.2001 8.45835 16.2002 5.51367C16.2002 3.48365 14.5878 1.83789 12.5996 1.83789Z" fill="black"/>
</svg>
