<svg width="20" height="17" viewBox="0 0 20 17" fill="none" xmlns="http://www.w3.org/2000/svg">
<path d="M18.6367 14C19.3893 14.0002 20 14.6721 20 15.5C20 16.3279 19.3893 16.9998 18.6367 17H1.36328C0.609808 16.9998 0 16.3279 0 15.5C0 14.6721 0.609808 14.0002 1.36328 14H18.6367ZM18.6367 7C19.3893 7.00021 20 7.67213 20 8.5C20 9.32787 19.3893 9.99979 18.6367 10H1.36328C0.609808 9.99979 0 9.32787 0 8.5C0 7.67213 0.609808 7.00021 1.36328 7H18.6367ZM18.6367 0C19.3893 0.000211107 20 0.67213 20 1.5C20 2.32787 19.3893 2.99979 18.6367 3H1.36328C0.609808 2.99979 0 2.32787 0 1.5C0 0.67213 0.609808 0.000211065 1.36328 0H18.6367Z" fill="#1F2022"/>
</svg>
