<svg width="18" height="20" viewBox="0 0 18 20" fill="none" xmlns="http://www.w3.org/2000/svg">
<path opacity="0.24" d="M16.8945 0.0242393C17.3783 -0.0903716 17.8629 0.212414 17.9766 0.700997C17.9943 0.777389 18.0016 0.854528 18 0.929513V14.0906C18 15.8479 16.5893 17.2723 14.8496 17.2723C13.1101 17.2721 11.7002 15.8478 11.7002 14.0906C11.7004 12.3336 13.1102 10.9092 14.8496 10.909C15.3327 10.909 15.791 11.0193 16.2002 11.2156V5.69318L6.2998 8.04084V16.8182C6.2998 18.5753 4.88991 19.9996 3.15039 19.9998C1.41069 19.9998 0 18.5755 0 16.8182C1.42869e-05 15.0609 1.4107 13.6365 3.15039 13.6365C3.63331 13.6366 4.09098 13.746 4.5 13.9422V3.63654C4.55115 3.23974 4.82606 2.88628 5.22754 2.79084L16.8945 0.0242393ZM3.15039 15.4549C2.40482 15.4549 1.79982 16.0651 1.7998 16.8182C1.7998 17.5713 2.40481 18.1815 3.15039 18.1815C3.8958 18.1813 4.5 17.5712 4.5 16.8182C4.49999 16.0652 3.89579 15.4551 3.15039 15.4549ZM14.8496 12.7274C14.1043 12.7276 13.5002 13.3378 13.5 14.0906C13.5 14.8436 14.1042 15.4547 14.8496 15.4549C15.5952 15.4549 16.2002 14.8438 16.2002 14.0906C16.2 13.3377 15.5951 12.7274 14.8496 12.7274ZM6.2998 4.40412V6.17268L16.2002 3.82502V2.05647L6.2998 4.40412Z" fill="black"/>
</svg>
