<svg width="18" height="18" viewBox="0 0 18 18" fill="none" xmlns="http://www.w3.org/2000/svg">
<path opacity="0.24" d="M15.9043 6C17.049 6 17.9148 6.95368 17.8008 8.09473L17 16.1045C16.8939 17.1634 15.9712 17.9999 14.9102 18H2.90137C1.83629 18 0.916951 17.1668 0.810547 16.1045L0.00976603 8.09473C-0.104016 6.95575 0.759281 6.00012 1.90625 6H15.9043ZM2.90527 16H14.9053L15.7998 8.00781L2.01074 8.00391L2.90527 16ZM14.9102 3C15.4599 3.0001 15.9053 3.44393 15.9053 4C15.9053 4.55222 15.4557 4.9999 14.9102 5H2.90137C2.3515 5 1.90527 4.55614 1.90527 4C1.90527 3.44772 2.35569 3 2.90137 3H14.9102ZM12.9102 0C13.4599 0 13.9053 0.443865 13.9053 1C13.9053 1.55228 13.4564 2 12.9102 2H4.90137C4.35162 2 3.90527 1.55614 3.90527 1C3.90527 0.447715 4.35508 0 4.90137 0H12.9102Z" fill="black"/>
</svg>
