<svg width="17" height="19" viewBox="0 0 17 19" fill="none" xmlns="http://www.w3.org/2000/svg">
<path opacity="0.24" d="M13.292 0C15.225 0 16.792 1.60949 16.792 3.59473C16.792 4.61652 16.3765 5.53892 15.71 6.19336C16.216 7.27132 16.5 8.48001 16.5 9.75684C16.5 11.9552 15.6593 13.9523 14.29 15.4268C14.3207 15.4692 15.3475 17.2891 15.3662 17.3223C15.644 17.8165 15.4782 18.441 15 18.7246C14.5184 19.0102 13.9107 18.8403 13.6348 18.3496L12.7266 16.7344C11.5002 17.5195 10.0515 17.9727 8.5 17.9727C6.94846 17.9727 5.49978 17.5195 4.27344 16.7344L3.36523 18.3496C3.08934 18.8403 2.48161 19.0102 2 18.7246C1.52177 18.441 1.35596 17.8165 1.63379 17.3223C1.65251 17.2891 2.67932 15.4692 2.70996 15.4268C1.34074 13.9523 0.50002 11.9552 0.5 9.75684C0.5 8.5332 0.760465 7.37153 1.22754 6.32812C0.476415 5.66885 3.83125e-05 4.68903 0 3.59473C0 1.60949 1.567 0 3.5 0C4.79328 0 5.9224 0.720598 6.52832 1.79199C7.15891 1.62788 7.81973 1.54102 8.5 1.54102C9.11506 1.54102 9.71383 1.61211 10.2891 1.74707C10.9009 0.700564 12.0169 3.66624e-05 13.292 0ZM8.5 3.59473C5.18629 3.59473 2.5 6.35357 2.5 9.75684C2.50004 13.1601 5.18632 15.9189 8.5 15.9189C11.8137 15.9189 14.5 13.1601 14.5 9.75684C14.5 6.35357 11.8137 3.59473 8.5 3.59473ZM8.5 4.62207C9.05228 4.62207 9.49999 5.07732 9.5 5.64844V9.75684C9.49996 10.324 9.05664 10.7842 8.50098 10.7842H6.49902C5.9473 10.7842 5.50004 10.328 5.5 9.75684C5.5 9.18963 5.94334 8.72951 6.49902 8.72949H7.5V5.64844C7.50001 5.08134 7.94387 4.62207 8.5 4.62207ZM3.5 2.05371C2.67157 2.05371 2 2.74391 2 3.59473C2.00003 3.94819 2.11746 4.27838 2.31738 4.54199C2.95527 3.74521 3.73627 3.07366 4.62012 2.56934C4.34221 2.24976 3.93913 2.05371 3.5 2.05371ZM13.292 2.05371C12.8889 2.05374 12.5156 2.21887 12.2422 2.49316C13.1301 2.97673 13.9195 3.62698 14.5693 4.40332C14.7114 4.1665 14.792 3.88849 14.792 3.59473C14.792 2.74391 14.1204 2.05371 13.292 2.05371Z" fill="black"/>
</svg>
