<svg width="75" height="24" viewBox="0 0 75 24" fill="none" xmlns="http://www.w3.org/2000/svg">
<path d="M45.2974 8.13603C45.2974 9.02631 45.2962 9.91622 45.2954 10.806C45.2932 13.4752 45.2912 16.1429 45.3091 18.8138C45.3091 19.3208 45.363 19.8458 45.4527 20.3528C45.5544 20.8715 45.9375 21.0601 46.4517 21.0247C47.2827 20.9598 47.8567 20.3527 47.857 19.5393V8.20048C47.8271 7.97053 47.8267 7.75773 47.8267 7.50419H51.4214V23.2532H48.6167C48.5246 22.7132 48.4323 22.1587 48.3267 21.5237L48.2935 21.3255C48.1692 21.5055 48.0773 21.643 47.9956 21.7659V21.7669H47.9947C47.9509 21.8327 47.9103 21.8948 47.8687 21.9563C46.9358 23.2829 45.6141 23.7371 44.0533 23.4954C42.7198 23.2831 41.9182 22.2684 41.7388 20.6058C41.685 20.1107 41.6617 19.6096 41.6617 19.1145C41.6537 16.6573 41.6561 14.1944 41.6587 11.7337V11.7259C41.6601 10.4989 41.6617 9.27238 41.6617 8.04716V7.49247H45.2974V8.13603ZM26.6929 8.15947C26.6929 9.04558 26.6917 9.93132 26.691 10.8167C26.6887 13.4719 26.6867 16.1242 26.7046 18.7727C26.7047 19.2796 26.7523 19.8041 26.8599 20.2991C26.9974 20.8828 27.345 21.0721 27.937 20.9954C28.7562 20.8833 29.2524 20.3227 29.2583 19.5032V7.51689H32.8521V23.2532H30.0601C30.0057 22.9407 29.9511 22.6229 29.8921 22.2786L29.8912 22.2767C29.8401 21.9786 29.7861 21.6603 29.7251 21.3079C29.5457 21.5732 29.444 21.7268 29.3423 21.886C28.4094 23.2361 27.0991 23.7313 25.5025 23.4895C24.2229 23.3008 23.44 22.369 23.2007 20.8421C23.135 20.3646 23.0865 19.8928 23.0865 19.4153C23.0745 15.5887 23.0747 11.7439 23.0747 7.91728L23.0806 7.49247H26.6929V8.15947ZM16.7954 7.19853C19.4866 7.38721 20.6885 9.12641 21.0054 11.6028C21.1788 13.0237 21.263 14.4622 21.2271 15.9007C21.2175 16.3251 21.1924 16.7497 21.1675 17.1741C21.1613 17.2801 21.1549 17.3865 21.149 17.4925C21.1371 17.6294 21.1264 17.7716 21.1148 17.9173C20.9915 19.465 20.8334 21.4426 19.6421 22.5042C18.8109 23.2353 17.7579 23.501 16.6695 23.5364C16.1852 23.5482 15.6947 23.5485 15.2105 23.4837C12.9202 23.1417 11.8559 22.1446 11.4732 19.6624C11.0367 16.7969 11.0008 13.8843 11.521 11.0188C12.0593 8.05306 13.913 7.00397 16.7954 7.19853ZM57.0845 9.1204C57.1831 8.99725 57.2547 8.91328 57.312 8.84599L57.4312 8.70146C58.0172 7.90553 58.7767 7.38632 59.7574 7.18583C61.3181 6.88514 62.652 7.56349 63.1245 9.04325C63.4295 9.96307 63.627 10.9484 63.6509 11.9095C63.6987 14.3799 63.6625 16.8443 63.5728 19.3147C63.5369 20.0693 63.3042 20.8417 63.0113 21.5491C62.0485 23.884 58.9022 24.2384 57.3413 22.2161C57.2873 22.1461 57.2349 22.0722 57.1695 21.9798C57.1193 21.9088 57.0615 21.8266 56.9888 21.7268C56.8948 22.1055 56.8079 22.4309 56.7242 22.7464V22.7474C56.6803 22.9127 56.6374 23.0754 56.5943 23.2415H53.6519V0.86552H57.0845V9.1204ZM69.2359 7.19853C70.1568 7.11009 71.1081 7.14484 72.0171 7.29814C73.4882 7.55168 74.2719 8.59532 74.6128 9.96318C74.7683 10.6059 74.8819 11.2667 74.9058 11.9212C74.909 12.7319 74.9014 13.5392 74.8941 14.3597C74.8878 15.0607 74.8814 15.7715 74.8814 16.5022H68.8296C68.8478 16.8337 68.8626 17.1613 68.8775 17.4847C68.9162 18.3289 68.9537 19.1491 69.0445 19.9632C69.1342 20.7474 69.5716 21.0833 70.2593 21.0892C70.9767 21.1008 71.3956 20.7472 71.563 19.969C71.6168 19.7156 71.6524 19.4618 71.6763 19.2024C71.6977 18.9971 71.7091 18.7771 71.7242 18.4974L71.73 18.3948C72.0334 18.4106 72.3349 18.4275 72.6343 18.4436L74.7378 18.5481C75.3119 20.2285 74.2777 22.3866 72.5376 23.053C71.1682 23.5837 69.7622 23.5839 68.3628 23.177C67.3284 22.8763 66.5573 22.2271 66.2105 21.2308C65.8876 20.2992 65.5819 19.3266 65.5162 18.3538C65.3368 15.9541 65.2714 13.5308 65.6421 11.1253C65.7079 10.7243 65.8212 10.3406 65.9468 9.95146C66.4491 8.34784 67.5437 7.36374 69.2359 7.19853ZM9.16459 1.59111C9.84915 1.61626 10.5429 1.61152 11.2564 1.60673C11.5463 1.60478 11.8401 1.60283 12.1372 1.60283C11.8298 2.71772 11.5273 3.7829 11.23 4.83036L11.1499 5.11064C10.1273 8.68375 9.10494 12.2689 8.09428 15.8538C8.01655 16.1309 7.981 16.4321 7.981 16.7268C7.97303 18.0314 7.97541 19.3333 7.97807 20.636C7.97939 21.2878 7.981 21.9404 7.981 22.5931V23.2298H4.47025L4.44096 22.8763C4.43697 22.8173 4.43413 22.7584 4.43412 22.6995C4.43412 22.3456 4.42568 21.9904 4.41654 21.636C4.39706 20.8807 4.37762 20.1256 4.44682 19.3792C4.67114 17.0787 4.05235 14.9399 3.43412 12.802C3.34411 12.4908 3.25394 12.1792 3.16654 11.8675C2.71208 10.2461 2.25485 8.62163 1.7974 6.99736C1.33993 5.37299 0.881769 3.74865 0.427284 2.12724C0.400532 2.04147 0.383304 1.95195 0.364784 1.85673C0.350221 1.78186 0.335041 1.7034 0.314003 1.6204H3.89603C4.64954 5.19937 5.40939 8.77852 6.19877 12.3929C6.28464 11.9791 6.36946 11.5679 6.45365 11.1585V11.1575C6.68013 10.0563 6.90339 8.96778 7.1431 7.87626C7.33475 6.99176 7.53671 6.10706 7.73881 5.22197C7.97186 4.20132 8.20559 3.17966 8.42338 2.15654C8.52505 1.69103 8.71628 1.57935 9.16459 1.59111ZM42.69 4.47392H39.1558V23.2298H35.6333L35.6275 4.4915H32.0689V1.6497H42.69V4.47392ZM16.2154 9.6038C15.6892 9.61563 15.3188 9.93403 15.1275 10.553L15.1158 10.5931C15.0534 10.8102 14.9899 11.0318 14.9898 11.2483C14.9898 12.8285 14.9773 14.4152 14.9654 15.9954C14.9628 16.3073 14.9525 16.6224 14.9419 16.9388C14.9024 18.1171 14.8625 19.3123 15.2349 20.4231C15.3784 20.8534 15.7488 21.089 16.2329 21.0892C16.7054 21.0892 17.0166 20.8593 17.19 20.4466C17.3275 20.1283 17.4478 19.7806 17.4478 19.4388C17.4609 19.0126 17.477 18.5847 17.4937 18.1575C17.5302 17.2258 17.5669 16.2923 17.5669 15.3587C17.5669 15.0708 17.5689 14.782 17.5708 14.4935C17.5757 13.7714 17.5808 13.0477 17.5552 12.3274C17.5313 11.7438 17.4532 11.1542 17.3277 10.5765C17.1841 9.9103 16.7535 9.59201 16.2154 9.6038ZM59.7818 10.4886C59.5127 9.66904 58.7711 9.42711 58.0415 9.90458C57.4914 10.2701 57.1558 10.7889 57.1558 11.4788V19.6624C57.1558 20.3287 57.5152 20.7357 58.191 20.889C58.8545 21.0422 59.3925 20.7889 59.6617 20.1819C59.7752 19.9285 59.889 19.6629 59.8951 19.3977C59.9608 16.8979 60.0207 14.3976 60.0386 11.8919C60.0386 11.4262 59.9252 10.9424 59.7818 10.4886ZM70.0913 9.58622C69.5832 9.58625 69.2599 9.83942 69.1343 10.2933C68.8216 11.4059 68.8488 12.5389 68.8755 13.678C68.8815 13.9332 68.887 14.1889 68.8892 14.4446C69.8041 14.4328 70.6356 14.4329 71.4429 14.4329C71.4429 14.1333 71.4441 13.838 71.4449 13.5462C71.4471 12.6838 71.4491 11.85 71.4312 11.013C71.4312 10.7477 71.3297 10.4706 71.2281 10.2171C71.0247 9.7218 70.5997 9.58622 70.0913 9.58622Z" fill="black"/>
</svg>
